<?xml version="1.0" standalone="no"?>
<!DOCTYPE svg PUBLIC "-//W3C//DTD SVG 20010904//EN"
 "http://www.w3.org/TR/2001/REC-SVG-20010904/DTD/svg10.dtd">
<svg version="1.0" xmlns="http://www.w3.org/2000/svg"
 width="1200.000000pt" height="1200.000000pt" viewBox="0 0 1200.000000 1200.000000"
 preserveAspectRatio="xMidYMid meet">

<g transform="translate(0.000000,1200.000000) scale(0.100000,-0.100000)"
fill="#1a98a6" stroke="none">
<path d="M3382 9310 c-288 -76 -502 -354 -502 -652 0 -85 27 -202 64 -283 82
-175 225 -301 411 -362 72 -24 99 -27 268 -31 103 -2 187 -6 187 -8 0 -2 -18
-43 -39 -93 -151 -342 -222 -705 -207 -1061 14 -362 76 -613 243 -987 4 -10
-22 -13 -113 -13 -232 0 -370 -55 -519 -204 -99 -100 -149 -184 -181 -306 -35
-136 -14 -341 47 -463 67 -132 186 -250 314 -312 145 -70 -66 -65 2717 -63
l2513 3 73 27 c108 39 177 84 263 168 94 93 159 216 185 350 58 297 -103 609
-382 737 -104 48 -191 63 -375 63 -87 0 -159 3 -159 6 0 4 18 47 40 96 86 190
155 436 191 683 20 131 17 470 -5 620 -32 228 -95 449 -185 654 -23 50 -41 93
-41 95 0 2 64 6 143 8 122 4 154 9 227 34 171 57 317 186 395 349 24 50 49
117 55 149 15 75 15 207 0 280 -51 249 -247 453 -496 516 -76 20 -122 20
-2568 19 -2424 0 -2493 -1 -2564 -19z m292 -175 c230 -60 376 -247 376 -481 0
-141 -49 -252 -153 -351 -100 -95 -205 -136 -342 -135 -141 1 -254 51 -352
155 -102 108 -137 204 -131 361 3 92 7 108 41 179 101 214 340 329 561 272z
m2531 5 c580 -54 1121 -333 1503 -775 297 -345 483 -775 533 -1233 14 -139 7
-461 -15 -582 -39 -223 -97 -410 -189 -602 l-60 -128 -654 0 c-359 0 -653 2
-653 5 0 2 26 22 58 44 33 22 96 74 141 117 249 234 391 560 392 899 1 333
-120 646 -340 879 -168 177 -369 295 -621 364 l-95 27 -1087 3 c-599 1 -1088
6 -1088 11 0 4 12 18 26 32 50 46 121 166 150 255 24 75 29 105 29 194 0 58
-6 130 -14 160 -20 83 -85 212 -141 280 l-51 60 1033 0 c620 0 1077 -4 1143
-10z m2260 -5 c310 -81 466 -430 317 -709 -42 -80 -138 -171 -224 -211 -86
-41 -169 -54 -345 -55 l-122 0 -49 73 c-203 299 -484 570 -772 744 -47 28
-141 79 -209 112 l-124 61 735 0 c627 0 742 -2 793 -15z m-3153 -1173 c-159
-118 -263 -219 -346 -337 -253 -355 -302 -829 -125 -1230 153 -350 466 -616
844 -718 l120 -32 1083 -3 c595 -1 1082 -5 1082 -8 0 -3 -20 -29 -45 -56 -59
-65 -107 -154 -137 -248 -33 -106 -32 -274 1 -375 31 -97 83 -191 137 -253
l46 -52 -1045 0 c-648 0 -1084 4 -1148 10 -439 44 -834 204 -1185 481 -43 34
-133 117 -199 183 -304 307 -499 664 -599 1099 -30 129 -46 300 -46 482 -1
359 69 659 227 983 l45 92 656 0 c622 -1 656 -2 634 -18z m948 -17 c308 -75
569 -287 710 -579 170 -351 140 -751 -83 -1081 -53 -79 -195 -220 -276 -274
-219 -149 -501 -216 -757 -180 -237 33 -441 135 -615 308 -432 430 -422 1126
22 1545 156 148 382 256 594 285 109 15 286 4 405 -24z m-2278 -2410 c251
-367 626 -684 1008 -852 l75 -33 -760 3 c-858 2 -794 -3 -927 84 -314 206
-283 676 56 843 97 48 157 58 345 56 l135 -1 68 -100z m4613 73 c81 -26 144
-68 208 -138 88 -95 127 -196 127 -331 0 -223 -157 -423 -371 -474 -318 -75
-609 155 -609 480 0 134 40 235 129 328 141 149 326 197 516 135z"/>
<path d="M7950 3445 l0 -45 64 0 65 0 3 -222 c3 -241 7 -262 59 -301 15 -10
47 -21 72 -24 49 -6 147 13 147 28 0 5 -6 25 -14 43 -13 32 -16 34 -58 29 -78
-9 -78 -10 -78 283 l0 254 -130 0 -130 0 0 -45z"/>
<path d="M3203 3450 c-84 -17 -144 -65 -184 -147 -20 -41 -24 -63 -24 -148 0
-84 4 -108 24 -152 53 -119 185 -177 316 -142 40 11 115 56 115 69 0 4 -12 23
-28 42 l-27 35 -45 -25 c-92 -49 -182 -12 -209 85 -25 88 -3 219 43 262 37 34
101 39 156 11 l44 -22 28 33 c15 19 26 39 25 44 -5 18 -91 53 -142 58 -27 3
-69 2 -92 -3z"/>
<path d="M6080 3395 l0 -55 80 0 80 0 0 -235 0 -235 70 0 70 0 0 235 0 235 80
0 80 0 0 33 c0 17 3 42 6 55 l6 22 -236 0 -236 0 0 -55z"/>
<path d="M5005 3411 c-40 -6 -40 -6 -43 -53 l-3 -48 -45 0 -44 0 0 -50 0 -50
44 0 44 0 4 -127 c4 -142 15 -175 72 -209 42 -25 166 -26 214 -1 l32 18 -22
38 c-20 35 -24 38 -49 29 -15 -5 -42 -8 -60 -6 -48 4 -59 33 -59 156 l0 102
65 0 c70 0 70 -1 79 63 l5 37 -75 0 -74 0 0 55 c0 61 3 59 -85 46z"/>
<path d="M3767 3316 c-94 -26 -146 -104 -147 -220 0 -90 17 -143 60 -186 74
-74 211 -80 290 -13 115 96 98 338 -28 402 -52 26 -118 33 -175 17z m112 -105
c25 -25 34 -75 29 -156 -3 -44 -10 -70 -22 -84 -25 -28 -79 -28 -104 0 -45 47
-42 189 4 240 22 25 69 24 93 0z"/>
<path d="M5635 3324 c-11 -2 -44 -9 -72 -15 -29 -6 -53 -13 -53 -16 0 -3 5
-23 12 -45 10 -33 15 -38 32 -34 12 4 49 9 83 13 57 5 63 4 87 -20 14 -14 26
-35 26 -45 0 -17 -10 -20 -80 -25 -137 -9 -206 -65 -197 -160 10 -114 154
-165 261 -92 30 20 36 22 47 9 15 -18 36 -29 70 -37 23 -6 27 -3 38 33 10 34
9 44 -4 62 -11 17 -15 51 -15 148 0 142 -11 174 -71 202 -36 17 -130 30 -164
22z m115 -298 c0 -43 -38 -76 -85 -76 -39 0 -58 19 -53 57 4 34 37 53 96 53
41 0 42 -1 42 -34z"/>
<path d="M6867 3316 c-94 -26 -146 -104 -147 -220 0 -90 17 -143 60 -186 74
-74 211 -80 290 -13 115 96 98 338 -28 402 -52 26 -118 33 -175 17z m112 -105
c25 -25 34 -75 29 -156 -3 -44 -10 -70 -22 -84 -25 -28 -79 -28 -104 0 -45 47
-42 189 4 240 22 25 69 24 93 0z"/>
<path d="M7487 3316 c-94 -26 -146 -104 -147 -220 0 -90 17 -143 60 -186 74
-74 211 -80 290 -13 115 96 98 338 -28 402 -52 26 -118 33 -175 17z m112 -105
c25 -25 34 -75 29 -156 -3 -44 -10 -70 -22 -84 -25 -28 -79 -28 -104 0 -45 47
-42 189 4 240 22 25 69 24 93 0z"/>
<path d="M8740 3321 c-106 -22 -158 -108 -115 -191 18 -35 37 -46 134 -80 80
-27 103 -48 85 -77 -17 -28 -106 -29 -157 -3 l-42 20 -28 -31 c-16 -17 -27
-36 -25 -42 2 -7 26 -23 53 -37 69 -34 199 -35 262 -2 72 37 99 105 70 174
-17 41 -57 65 -147 91 -74 22 -98 40 -84 64 16 26 84 29 138 4 l45 -19 25 38
c20 30 23 40 12 49 -41 34 -159 56 -226 42z"/>
<path d="M4461 3309 c-13 -5 -36 -18 -51 -29 l-29 -20 -3 22 c-3 20 -9 23 -60
26 l-58 3 0 -226 0 -225 65 0 65 0 0 159 0 160 26 20 c32 25 79 28 88 5 3 -9
6 -90 6 -180 l0 -164 65 0 65 0 0 193 c0 158 -3 197 -16 215 -32 46 -105 64
-163 41z"/>
</g>
</svg>
